<?xml version="1.0" encoding="utf-8" standalone="no"?>
<!DOCTYPE svg PUBLIC "-//W3C//DTD SVG 1.1//EN"
  "http://www.w3.org/Graphics/SVG/1.1/DTD/svg11.dtd">
<svg xmlns:xlink="http://www.w3.org/1999/xlink" width="720pt" height="216pt" viewBox="0 0 720 216" xmlns="http://www.w3.org/2000/svg" version="1.1">
 <metadata>
  <rdf:RDF xmlns:dc="http://purl.org/dc/elements/1.1/" xmlns:cc="http://creativecommons.org/ns#" xmlns:rdf="http://www.w3.org/1999/02/22-rdf-syntax-ns#">
   <cc:Work>
    <dc:type rdf:resource="http://purl.org/dc/dcmitype/StillImage"/>
    <dc:date>2025-05-12T17:10:13.999233</dc:date>
    <dc:format>image/svg+xml</dc:format>
    <dc:creator>
     <cc:Agent>
      <dc:title>Matplotlib v3.5.0, https://matplotlib.org/</dc:title>
     </cc:Agent>
    </dc:creator>
   </cc:Work>
  </rdf:RDF>
 </metadata>
 <defs>
  <style type="text/css">*{stroke-linejoin: round; stroke-linecap: butt}</style>
 </defs>
 <g id="figure_1">
  <g id="patch_1">
   <path d="M 0 216 
L 720 216 
L 720 0 
L 0 0 
z
" style="fill: #ffffff"/>
  </g>
  <g id="axes_1">
   <g id="patch_2">
    <path d="M 58.52 174.04 
L 699.615 174.04 
L 699.615 10.8 
L 58.52 10.8 
z
" style="fill: #ffffff"/>
   </g>
   <g id="PathCollection_1">
    <defs>
     <path id="m250a83d1ea" d="M 0 0.707107 
C 0.187527 0.707107 0.367398 0.632602 0.5 0.5 
C 0.632602 0.367398 0.707107 0.187527 0.707107 0 
C 0.707107 -0.187527 0.632602 -0.367398 0.5 -0.5 
C 0.367398 -0.632602 0.187527 -0.707107 0 -0.707107 
C -0.187527 -0.707107 -0.367398 -0.632602 -0.5 -0.5 
C -0.632602 -0.367398 -0.707107 -0.187527 -0.707107 0 
C -0.707107 0.187527 -0.632602 0.367398 -0.5 0.5 
C -0.367398 0.632602 -0.187527 0.707107 0 0.707107 
z
" style="stroke: #000000"/>
    </defs>
    <g clip-path="url(#p2a7ea81c1f)">
     <use xlink:href="#m250a83d1ea" x="58.52" y="18.22" style="stroke: #000000"/>
     <use xlink:href="#m250a83d1ea" x="61.191229" y="18.22" style="stroke: #000000"/>
     <use xlink:href="#m250a83d1ea" x="63.862458" y="18.22" style="stroke: #000000"/>
     <use xlink:href="#m250a83d1ea" x="66.533687" y="18.22" style="stroke: #000000"/>
     <use xlink:href="#m250a83d1ea" x="69.204917" y="18.22" style="stroke: #000000"/>
     <use xlink:href="#m250a83d1ea" x="71.876146" y="18.22" style="stroke: #000000"/>
     <use xlink:href="#m250a83d1ea" x="74.547375" y="18.22" style="stroke: #000000"/>
     <use xlink:href="#m250a83d1ea" x="77.218604" y="18.22" style="stroke: #000000"/>
     <use xlink:href="#m250a83d1ea" x="79.889833" y="18.22" style="stroke: #000000"/>
     <use xlink:href="#m250a83d1ea" x="82.561063" y="18.22" style="stroke: #000000"/>
     <use xlink:href="#m250a83d1ea" x="85.232292" y="18.22" style="stroke: #000000"/>
     <use xlink:href="#m250a83d1ea" x="87.903521" y="18.22" style="stroke: #000000"/>
     <use xlink:href="#m250a83d1ea" x="90.57475" y="18.22" style="stroke: #000000"/>
     <use xlink:href="#m250a83d1ea" x="93.245979" y="18.22" style="stroke: #000000"/>
     <use xlink:href="#m250a83d1ea" x="95.917208" y="18.22" style="stroke: #000000"/>
     <use xlink:href="#m250a83d1ea" x="98.588437" y="18.22" style="stroke: #000000"/>
     <use xlink:href="#m250a83d1ea" x="101.259667" y="18.22" style="stroke: #000000"/>
     <use xlink:href="#m250a83d1ea" x="103.930896" y="18.22" style="stroke: #000000"/>
     <use xlink:href="#m250a83d1ea" x="106.602125" y="18.22" style="stroke: #000000"/>
     <use xlink:href="#m250a83d1ea" x="109.273354" y="18.22" style="stroke: #000000"/>
     <use xlink:href="#m250a83d1ea" x="111.944583" y="18.22" style="stroke: #000000"/>
     <use xlink:href="#m250a83d1ea" x="114.615813" y="18.22" style="stroke: #000000"/>
     <use xlink:href="#m250a83d1ea" x="117.287042" y="18.22" style="stroke: #000000"/>
     <use xlink:href="#m250a83d1ea" x="119.958271" y="18.22" style="stroke: #000000"/>
     <use xlink:href="#m250a83d1ea" x="122.6295" y="18.22" style="stroke: #000000"/>
     <use xlink:href="#m250a83d1ea" x="125.300729" y="18.22" style="stroke: #000000"/>
     <use xlink:href="#m250a83d1ea" x="127.971958" y="18.22" style="stroke: #000000"/>
     <use xlink:href="#m250a83d1ea" x="130.643188" y="18.22" style="stroke: #000000"/>
     <use xlink:href="#m250a83d1ea" x="133.314417" y="18.22" style="stroke: #000000"/>
     <use xlink:href="#m250a83d1ea" x="135.985646" y="18.22" style="stroke: #000000"/>
     <use xlink:href="#m250a83d1ea" x="138.656875" y="18.22" style="stroke: #000000"/>
     <use xlink:href="#m250a83d1ea" x="141.328104" y="18.22" style="stroke: #000000"/>
     <use xlink:href="#m250a83d1ea" x="143.999333" y="18.22" style="stroke: #000000"/>
     <use xlink:href="#m250a83d1ea" x="146.670562" y="18.22" style="stroke: #000000"/>
     <use xlink:href="#m250a83d1ea" x="149.341792" y="18.22" style="stroke: #000000"/>
     <use xlink:href="#m250a83d1ea" x="152.013021" y="18.22" style="stroke: #000000"/>
     <use xlink:href="#m250a83d1ea" x="154.68425" y="166.62" style="stroke: #000000"/>
     <use xlink:href="#m250a83d1ea" x="157.355479" y="18.22" style="stroke: #000000"/>
     <use xlink:href="#m250a83d1ea" x="160.026708" y="18.22" style="stroke: #000000"/>
     <use xlink:href="#m250a83d1ea" x="162.697937" y="18.22" style="stroke: #000000"/>
     <use xlink:href="#m250a83d1ea" x="165.369167" y="18.22" style="stroke: #000000"/>
     <use xlink:href="#m250a83d1ea" x="168.040396" y="18.22" style="stroke: #000000"/>
     <use xlink:href="#m250a83d1ea" x="170.711625" y="18.22" style="stroke: #000000"/>
     <use xlink:href="#m250a83d1ea" x="173.382854" y="18.22" style="stroke: #000000"/>
     <use xlink:href="#m250a83d1ea" x="176.054083" y="18.22" style="stroke: #000000"/>
     <use xlink:href="#m250a83d1ea" x="178.725313" y="18.22" style="stroke: #000000"/>
     <use xlink:href="#m250a83d1ea" x="181.396542" y="18.22" style="stroke: #000000"/>
     <use xlink:href="#m250a83d1ea" x="184.067771" y="18.22" style="stroke: #000000"/>
     <use xlink:href="#m250a83d1ea" x="186.739" y="18.22" style="stroke: #000000"/>
     <use xlink:href="#m250a83d1ea" x="189.410229" y="18.22" style="stroke: #000000"/>
     <use xlink:href="#m250a83d1ea" x="192.081458" y="18.22" style="stroke: #000000"/>
     <use xlink:href="#m250a83d1ea" x="194.752688" y="18.22" style="stroke: #000000"/>
     <use xlink:href="#m250a83d1ea" x="197.423917" y="18.22" style="stroke: #000000"/>
     <use xlink:href="#m250a83d1ea" x="200.095146" y="18.22" style="stroke: #000000"/>
     <use xlink:href="#m250a83d1ea" x="202.766375" y="18.22" style="stroke: #000000"/>
     <use xlink:href="#m250a83d1ea" x="205.437604" y="18.22" style="stroke: #000000"/>
     <use xlink:href="#m250a83d1ea" x="208.108833" y="18.22" style="stroke: #000000"/>
     <use xlink:href="#m250a83d1ea" x="210.780063" y="18.22" style="stroke: #000000"/>
     <use xlink:href="#m250a83d1ea" x="213.451292" y="18.22" style="stroke: #000000"/>
     <use xlink:href="#m250a83d1ea" x="216.122521" y="18.22" style="stroke: #000000"/>
     <use xlink:href="#m250a83d1ea" x="218.79375" y="18.22" style="stroke: #000000"/>
     <use xlink:href="#m250a83d1ea" x="221.464979" y="18.22" style="stroke: #000000"/>
     <use xlink:href="#m250a83d1ea" x="224.136208" y="18.22" style="stroke: #000000"/>
     <use xlink:href="#m250a83d1ea" x="226.807437" y="18.22" style="stroke: #000000"/>
     <use xlink:href="#m250a83d1ea" x="229.478667" y="18.22" style="stroke: #000000"/>
     <use xlink:href="#m250a83d1ea" x="232.149896" y="18.22" style="stroke: #000000"/>
     <use xlink:href="#m250a83d1ea" x="234.821125" y="18.22" style="stroke: #000000"/>
     <use xlink:href="#m250a83d1ea" x="237.492354" y="18.22" style="stroke: #000000"/>
     <use xlink:href="#m250a83d1ea" x="240.163583" y="18.22" style="stroke: #000000"/>
     <use xlink:href="#m250a83d1ea" x="242.834812" y="18.22" style="stroke: #000000"/>
     <use xlink:href="#m250a83d1ea" x="245.506042" y="18.22" style="stroke: #000000"/>
     <use xlink:href="#m250a83d1ea" x="248.177271" y="18.22" style="stroke: #000000"/>
     <use xlink:href="#m250a83d1ea" x="250.8485" y="18.22" style="stroke: #000000"/>
     <use xlink:href="#m250a83d1ea" x="253.519729" y="18.22" style="stroke: #000000"/>
     <use xlink:href="#m250a83d1ea" x="256.190958" y="18.22" style="stroke: #000000"/>
     <use xlink:href="#m250a83d1ea" x="258.862188" y="18.22" style="stroke: #000000"/>
     <use xlink:href="#m250a83d1ea" x="261.533417" y="18.22" style="stroke: #000000"/>
     <use xlink:href="#m250a83d1ea" x="264.204646" y="18.22" style="stroke: #000000"/>
     <use xlink:href="#m250a83d1ea" x="266.875875" y="18.22" style="stroke: #000000"/>
     <use xlink:href="#m250a83d1ea" x="269.547104" y="18.22" style="stroke: #000000"/>
     <use xlink:href="#m250a83d1ea" x="272.218333" y="18.22" style="stroke: #000000"/>
     <use xlink:href="#m250a83d1ea" x="274.889563" y="18.22" style="stroke: #000000"/>
     <use xlink:href="#m250a83d1ea" x="277.560792" y="18.22" style="stroke: #000000"/>
     <use xlink:href="#m250a83d1ea" x="280.232021" y="18.22" style="stroke: #000000"/>
     <use xlink:href="#m250a83d1ea" x="282.90325" y="18.22" style="stroke: #000000"/>
     <use xlink:href="#m250a83d1ea" x="285.574479" y="18.22" style="stroke: #000000"/>
     <use xlink:href="#m250a83d1ea" x="288.245708" y="18.22" style="stroke: #000000"/>
     <use xlink:href="#m250a83d1ea" x="290.916937" y="18.22" style="stroke: #000000"/>
     <use xlink:href="#m250a83d1ea" x="293.588167" y="18.22" style="stroke: #000000"/>
     <use xlink:href="#m250a83d1ea" x="296.259396" y="18.22" style="stroke: #000000"/>
     <use xlink:href="#m250a83d1ea" x="298.930625" y="18.22" style="stroke: #000000"/>
     <use xlink:href="#m250a83d1ea" x="301.601854" y="18.22" style="stroke: #000000"/>
     <use xlink:href="#m250a83d1ea" x="304.273083" y="18.22" style="stroke: #000000"/>
     <use xlink:href="#m250a83d1ea" x="306.944312" y="18.22" style="stroke: #000000"/>
     <use xlink:href="#m250a83d1ea" x="309.615542" y="18.22" style="stroke: #000000"/>
     <use xlink:href="#m250a83d1ea" x="312.286771" y="18.22" style="stroke: #000000"/>
     <use xlink:href="#m250a83d1ea" x="314.958" y="18.22" style="stroke: #000000"/>
     <use xlink:href="#m250a83d1ea" x="317.629229" y="18.22" style="stroke: #000000"/>
     <use xlink:href="#m250a83d1ea" x="320.300458" y="18.22" style="stroke: #000000"/>
     <use xlink:href="#m250a83d1ea" x="322.971687" y="18.22" style="stroke: #000000"/>
     <use xlink:href="#m250a83d1ea" x="325.642917" y="18.22" style="stroke: #000000"/>
     <use xlink:href="#m250a83d1ea" x="328.314146" y="18.22" style="stroke: #000000"/>
     <use xlink:href="#m250a83d1ea" x="330.985375" y="18.22" style="stroke: #000000"/>
     <use xlink:href="#m250a83d1ea" x="333.656604" y="18.22" style="stroke: #000000"/>
     <use xlink:href="#m250a83d1ea" x="336.327833" y="18.22" style="stroke: #000000"/>
     <use xlink:href="#m250a83d1ea" x="338.999062" y="18.22" style="stroke: #000000"/>
     <use xlink:href="#m250a83d1ea" x="341.670292" y="18.22" style="stroke: #000000"/>
     <use xlink:href="#m250a83d1ea" x="344.341521" y="18.22" style="stroke: #000000"/>
     <use xlink:href="#m250a83d1ea" x="347.01275" y="18.22" style="stroke: #000000"/>
     <use xlink:href="#m250a83d1ea" x="349.683979" y="18.22" style="stroke: #000000"/>
     <use xlink:href="#m250a83d1ea" x="352.355208" y="18.22" style="stroke: #000000"/>
     <use xlink:href="#m250a83d1ea" x="355.026437" y="18.22" style="stroke: #000000"/>
     <use xlink:href="#m250a83d1ea" x="357.697667" y="18.22" style="stroke: #000000"/>
     <use xlink:href="#m250a83d1ea" x="360.368896" y="18.22" style="stroke: #000000"/>
     <use xlink:href="#m250a83d1ea" x="363.040125" y="18.22" style="stroke: #000000"/>
     <use xlink:href="#m250a83d1ea" x="365.711354" y="18.22" style="stroke: #000000"/>
     <use xlink:href="#m250a83d1ea" x="368.382583" y="18.22" style="stroke: #000000"/>
     <use xlink:href="#m250a83d1ea" x="371.053812" y="18.22" style="stroke: #000000"/>
     <use xlink:href="#m250a83d1ea" x="373.725042" y="18.22" style="stroke: #000000"/>
     <use xlink:href="#m250a83d1ea" x="376.396271" y="18.22" style="stroke: #000000"/>
     <use xlink:href="#m250a83d1ea" x="379.0675" y="18.22" style="stroke: #000000"/>
     <use xlink:href="#m250a83d1ea" x="381.738729" y="18.22" style="stroke: #000000"/>
     <use xlink:href="#m250a83d1ea" x="384.409958" y="18.22" style="stroke: #000000"/>
     <use xlink:href="#m250a83d1ea" x="387.081187" y="18.22" style="stroke: #000000"/>
     <use xlink:href="#m250a83d1ea" x="389.752417" y="18.22" style="stroke: #000000"/>
     <use xlink:href="#m250a83d1ea" x="392.423646" y="18.22" style="stroke: #000000"/>
     <use xlink:href="#m250a83d1ea" x="395.094875" y="166.62" style="stroke: #000000"/>
     <use xlink:href="#m250a83d1ea" x="397.766104" y="18.22" style="stroke: #000000"/>
     <use xlink:href="#m250a83d1ea" x="400.437333" y="18.22" style="stroke: #000000"/>
     <use xlink:href="#m250a83d1ea" x="403.108562" y="18.22" style="stroke: #000000"/>
     <use xlink:href="#m250a83d1ea" x="405.779792" y="166.62" style="stroke: #000000"/>
     <use xlink:href="#m250a83d1ea" x="408.451021" y="18.22" style="stroke: #000000"/>
     <use xlink:href="#m250a83d1ea" x="411.12225" y="18.22" style="stroke: #000000"/>
     <use xlink:href="#m250a83d1ea" x="413.793479" y="18.22" style="stroke: #000000"/>
     <use xlink:href="#m250a83d1ea" x="416.464708" y="166.62" style="stroke: #000000"/>
     <use xlink:href="#m250a83d1ea" x="419.135937" y="18.22" style="stroke: #000000"/>
     <use xlink:href="#m250a83d1ea" x="421.807167" y="166.62" style="stroke: #000000"/>
     <use xlink:href="#m250a83d1ea" x="424.478396" y="18.22" style="stroke: #000000"/>
     <use xlink:href="#m250a83d1ea" x="427.149625" y="166.62" style="stroke: #000000"/>
     <use xlink:href="#m250a83d1ea" x="429.820854" y="18.22" style="stroke: #000000"/>
     <use xlink:href="#m250a83d1ea" x="432.492083" y="166.62" style="stroke: #000000"/>
     <use xlink:href="#m250a83d1ea" x="435.163312" y="18.22" style="stroke: #000000"/>
     <use xlink:href="#m250a83d1ea" x="437.834542" y="18.22" style="stroke: #000000"/>
     <use xlink:href="#m250a83d1ea" x="440.505771" y="18.22" style="stroke: #000000"/>
     <use xlink:href="#m250a83d1ea" x="443.177" y="166.62" style="stroke: #000000"/>
     <use xlink:href="#m250a83d1ea" x="445.848229" y="18.22" style="stroke: #000000"/>
     <use xlink:href="#m250a83d1ea" x="448.519458" y="18.22" style="stroke: #000000"/>
     <use xlink:href="#m250a83d1ea" x="451.190687" y="18.22" style="stroke: #000000"/>
     <use xlink:href="#m250a83d1ea" x="453.861917" y="166.62" style="stroke: #000000"/>
     <use xlink:href="#m250a83d1ea" x="456.533146" y="18.22" style="stroke: #000000"/>
     <use xlink:href="#m250a83d1ea" x="459.204375" y="18.22" style="stroke: #000000"/>
     <use xlink:href="#m250a83d1ea" x="461.875604" y="18.22" style="stroke: #000000"/>
     <use xlink:href="#m250a83d1ea" x="464.546833" y="18.22" style="stroke: #000000"/>
     <use xlink:href="#m250a83d1ea" x="467.218062" y="18.22" style="stroke: #000000"/>
     <use xlink:href="#m250a83d1ea" x="469.889292" y="18.22" style="stroke: #000000"/>
     <use xlink:href="#m250a83d1ea" x="472.560521" y="18.22" style="stroke: #000000"/>
     <use xlink:href="#m250a83d1ea" x="475.23175" y="166.62" style="stroke: #000000"/>
     <use xlink:href="#m250a83d1ea" x="477.902979" y="18.22" style="stroke: #000000"/>
     <use xlink:href="#m250a83d1ea" x="480.574208" y="166.62" style="stroke: #000000"/>
     <use xlink:href="#m250a83d1ea" x="483.245437" y="18.22" style="stroke: #000000"/>
     <use xlink:href="#m250a83d1ea" x="485.916667" y="166.62" style="stroke: #000000"/>
     <use xlink:href="#m250a83d1ea" x="488.587896" y="18.22" style="stroke: #000000"/>
     <use xlink:href="#m250a83d1ea" x="491.259125" y="18.22" style="stroke: #000000"/>
     <use xlink:href="#m250a83d1ea" x="493.930354" y="18.22" style="stroke: #000000"/>
     <use xlink:href="#m250a83d1ea" x="496.601583" y="166.62" style="stroke: #000000"/>
     <use xlink:href="#m250a83d1ea" x="499.272812" y="18.22" style="stroke: #000000"/>
     <use xlink:href="#m250a83d1ea" x="501.944042" y="166.62" style="stroke: #000000"/>
     <use xlink:href="#m250a83d1ea" x="504.615271" y="18.22" style="stroke: #000000"/>
     <use xlink:href="#m250a83d1ea" x="507.2865" y="166.62" style="stroke: #000000"/>
     <use xlink:href="#m250a83d1ea" x="509.957729" y="18.22" style="stroke: #000000"/>
     <use xlink:href="#m250a83d1ea" x="512.628958" y="18.22" style="stroke: #000000"/>
     <use xlink:href="#m250a83d1ea" x="515.300187" y="18.22" style="stroke: #000000"/>
     <use xlink:href="#m250a83d1ea" x="517.971417" y="166.62" style="stroke: #000000"/>
     <use xlink:href="#m250a83d1ea" x="520.642646" y="18.22" style="stroke: #000000"/>
     <use xlink:href="#m250a83d1ea" x="523.313875" y="18.22" style="stroke: #000000"/>
     <use xlink:href="#m250a83d1ea" x="525.985104" y="18.22" style="stroke: #000000"/>
     <use xlink:href="#m250a83d1ea" x="528.656333" y="166.62" style="stroke: #000000"/>
     <use xlink:href="#m250a83d1ea" x="531.327562" y="18.22" style="stroke: #000000"/>
     <use xlink:href="#m250a83d1ea" x="533.998792" y="18.22" style="stroke: #000000"/>
     <use xlink:href="#m250a83d1ea" x="536.670021" y="18.22" style="stroke: #000000"/>
     <use xlink:href="#m250a83d1ea" x="539.34125" y="18.22" style="stroke: #000000"/>
     <use xlink:href="#m250a83d1ea" x="542.012479" y="18.22" style="stroke: #000000"/>
     <use xlink:href="#m250a83d1ea" x="544.683708" y="18.22" style="stroke: #000000"/>
     <use xlink:href="#m250a83d1ea" x="547.354938" y="18.22" style="stroke: #000000"/>
     <use xlink:href="#m250a83d1ea" x="550.026167" y="166.62" style="stroke: #000000"/>
     <use xlink:href="#m250a83d1ea" x="552.697396" y="18.22" style="stroke: #000000"/>
     <use xlink:href="#m250a83d1ea" x="555.368625" y="166.62" style="stroke: #000000"/>
     <use xlink:href="#m250a83d1ea" x="558.039854" y="18.22" style="stroke: #000000"/>
     <use xlink:href="#m250a83d1ea" x="560.711083" y="166.62" style="stroke: #000000"/>
     <use xlink:href="#m250a83d1ea" x="563.382313" y="18.22" style="stroke: #000000"/>
     <use xlink:href="#m250a83d1ea" x="566.053542" y="166.62" style="stroke: #000000"/>
     <use xlink:href="#m250a83d1ea" x="568.724771" y="18.22" style="stroke: #000000"/>
     <use xlink:href="#m250a83d1ea" x="571.396" y="166.62" style="stroke: #000000"/>
     <use xlink:href="#m250a83d1ea" x="574.067229" y="18.22" style="stroke: #000000"/>
     <use xlink:href="#m250a83d1ea" x="576.738458" y="166.62" style="stroke: #000000"/>
     <use xlink:href="#m250a83d1ea" x="579.409687" y="18.22" style="stroke: #000000"/>
     <use xlink:href="#m250a83d1ea" x="582.080917" y="166.62" style="stroke: #000000"/>
     <use xlink:href="#m250a83d1ea" x="584.752146" y="18.22" style="stroke: #000000"/>
     <use xlink:href="#m250a83d1ea" x="587.423375" y="166.62" style="stroke: #000000"/>
     <use xlink:href="#m250a83d1ea" x="590.094604" y="18.22" style="stroke: #000000"/>
     <use xlink:href="#m250a83d1ea" x="592.765833" y="166.62" style="stroke: #000000"/>
     <use xlink:href="#m250a83d1ea" x="595.437062" y="18.22" style="stroke: #000000"/>
     <use xlink:href="#m250a83d1ea" x="598.108292" y="166.62" style="stroke: #000000"/>
     <use xlink:href="#m250a83d1ea" x="600.779521" y="18.22" style="stroke: #000000"/>
     <use xlink:href="#m250a83d1ea" x="603.45075" y="166.62" style="stroke: #000000"/>
     <use xlink:href="#m250a83d1ea" x="606.121979" y="18.22" style="stroke: #000000"/>
     <use xlink:href="#m250a83d1ea" x="608.793208" y="166.62" style="stroke: #000000"/>
     <use xlink:href="#m250a83d1ea" x="611.464437" y="18.22" style="stroke: #000000"/>
     <use xlink:href="#m250a83d1ea" x="614.135667" y="166.62" style="stroke: #000000"/>
     <use xlink:href="#m250a83d1ea" x="616.806896" y="18.22" style="stroke: #000000"/>
     <use xlink:href="#m250a83d1ea" x="619.478125" y="166.62" style="stroke: #000000"/>
     <use xlink:href="#m250a83d1ea" x="622.149354" y="18.22" style="stroke: #000000"/>
     <use xlink:href="#m250a83d1ea" x="624.820583" y="166.62" style="stroke: #000000"/>
     <use xlink:href="#m250a83d1ea" x="627.491812" y="18.22" style="stroke: #000000"/>
     <use xlink:href="#m250a83d1ea" x="630.163042" y="166.62" style="stroke: #000000"/>
     <use xlink:href="#m250a83d1ea" x="632.834271" y="18.22" style="stroke: #000000"/>
     <use xlink:href="#m250a83d1ea" x="635.5055" y="166.62" style="stroke: #000000"/>
     <use xlink:href="#m250a83d1ea" x="638.176729" y="18.22" style="stroke: #000000"/>
     <use xlink:href="#m250a83d1ea" x="640.847958" y="166.62" style="stroke: #000000"/>
     <use xlink:href="#m250a83d1ea" x="643.519187" y="18.22" style="stroke: #000000"/>
     <use xlink:href="#m250a83d1ea" x="646.190417" y="166.62" style="stroke: #000000"/>
     <use xlink:href="#m250a83d1ea" x="648.861646" y="18.22" style="stroke: #000000"/>
     <use xlink:href="#m250a83d1ea" x="651.532875" y="166.62" style="stroke: #000000"/>
     <use xlink:href="#m250a83d1ea" x="654.204104" y="18.22" style="stroke: #000000"/>
     <use xlink:href="#m250a83d1ea" x="656.875333" y="166.62" style="stroke: #000000"/>
     <use xlink:href="#m250a83d1ea" x="659.546562" y="18.22" style="stroke: #000000"/>
     <use xlink:href="#m250a83d1ea" x="662.217792" y="166.62" style="stroke: #000000"/>
     <use xlink:href="#m250a83d1ea" x="664.889021" y="18.22" style="stroke: #000000"/>
     <use xlink:href="#m250a83d1ea" x="667.56025" y="166.62" style="stroke: #000000"/>
     <use xlink:href="#m250a83d1ea" x="670.231479" y="18.22" style="stroke: #000000"/>
     <use xlink:href="#m250a83d1ea" x="672.902708" y="166.62" style="stroke: #000000"/>
     <use xlink:href="#m250a83d1ea" x="675.573937" y="18.22" style="stroke: #000000"/>
     <use xlink:href="#m250a83d1ea" x="678.245167" y="166.62" style="stroke: #000000"/>
     <use xlink:href="#m250a83d1ea" x="680.916396" y="166.62" style="stroke: #000000"/>
     <use xlink:href="#m250a83d1ea" x="683.587625" y="166.62" style="stroke: #000000"/>
     <use xlink:href="#m250a83d1ea" x="686.258854" y="18.22" style="stroke: #000000"/>
     <use xlink:href="#m250a83d1ea" x="688.930083" y="166.62" style="stroke: #000000"/>
     <use xlink:href="#m250a83d1ea" x="691.601312" y="18.22" style="stroke: #000000"/>
     <use xlink:href="#m250a83d1ea" x="694.272542" y="166.62" style="stroke: #000000"/>
     <use xlink:href="#m250a83d1ea" x="696.943771" y="18.22" style="stroke: #000000"/>
    </g>
   </g>
   <g id="matplotlib.axis_1">
    <g id="xtick_1">
     <g id="line2d_1">
      <defs>
       <path id="m088a69fe8e" d="M 0 0 
L 0 3.5 
" style="stroke: #000000; stroke-width: 0.8"/>
      </defs>
      <g>
       <use xlink:href="#m088a69fe8e" x="218.79375" y="174.04" style="stroke: #000000; stroke-width: 0.8"/>
      </g>
     </g>
     <g id="text_1">
      <!-- 60 -->
      <g transform="translate(212.43125 188.638438)scale(0.1 -0.1)">
       <defs>
        <path id="DejaVuSans-36" d="M 2113 2584 
Q 1688 2584 1439 2293 
Q 1191 2003 1191 1497 
Q 1191 994 1439 701 
Q 1688 409 2113 409 
Q 2538 409 2786 701 
Q 3034 994 3034 1497 
Q 3034 2003 2786 2293 
Q 2538 2584 2113 2584 
z
M 3366 4563 
L 3366 3988 
Q 3128 4100 2886 4159 
Q 2644 4219 2406 4219 
Q 1781 4219 1451 3797 
Q 1122 3375 1075 2522 
Q 1259 2794 1537 2939 
Q 1816 3084 2150 3084 
Q 2853 3084 3261 2657 
Q 3669 2231 3669 1497 
Q 3669 778 3244 343 
Q 2819 -91 2113 -91 
Q 1303 -91 875 529 
Q 447 1150 447 2328 
Q 447 3434 972 4092 
Q 1497 4750 2381 4750 
Q 2619 4750 2861 4703 
Q 3103 4656 3366 4563 
z
" transform="scale(0.015625)"/>
        <path id="DejaVuSans-30" d="M 2034 4250 
Q 1547 4250 1301 3770 
Q 1056 3291 1056 2328 
Q 1056 1369 1301 889 
Q 1547 409 2034 409 
Q 2525 409 2770 889 
Q 3016 1369 3016 2328 
Q 3016 3291 2770 3770 
Q 2525 4250 2034 4250 
z
M 2034 4750 
Q 2819 4750 3233 4129 
Q 3647 3509 3647 2328 
Q 3647 1150 3233 529 
Q 2819 -91 2034 -91 
Q 1250 -91 836 529 
Q 422 1150 422 2328 
Q 422 3509 836 4129 
Q 1250 4750 2034 4750 
z
" transform="scale(0.015625)"/>
       </defs>
       <use xlink:href="#DejaVuSans-36"/>
       <use xlink:href="#DejaVuSans-30" x="63.623047"/>
      </g>
     </g>
    </g>
    <g id="xtick_2">
     <g id="line2d_2">
      <g>
       <use xlink:href="#m088a69fe8e" x="379.0675" y="174.04" style="stroke: #000000; stroke-width: 0.8"/>
      </g>
     </g>
     <g id="text_2">
      <!-- 120 -->
      <g transform="translate(369.52375 188.638438)scale(0.1 -0.1)">
       <defs>
        <path id="DejaVuSans-31" d="M 794 531 
L 1825 531 
L 1825 4091 
L 703 3866 
L 703 4441 
L 1819 4666 
L 2450 4666 
L 2450 531 
L 3481 531 
L 3481 0 
L 794 0 
L 794 531 
z
" transform="scale(0.015625)"/>
        <path id="DejaVuSans-32" d="M 1228 531 
L 3431 531 
L 3431 0 
L 469 0 
L 469 531 
Q 828 903 1448 1529 
Q 2069 2156 2228 2338 
Q 2531 2678 2651 2914 
Q 2772 3150 2772 3378 
Q 2772 3750 2511 3984 
Q 2250 4219 1831 4219 
Q 1534 4219 1204 4116 
Q 875 4013 500 3803 
L 500 4441 
Q 881 4594 1212 4672 
Q 1544 4750 1819 4750 
Q 2544 4750 2975 4387 
Q 3406 4025 3406 3419 
Q 3406 3131 3298 2873 
Q 3191 2616 2906 2266 
Q 2828 2175 2409 1742 
Q 1991 1309 1228 531 
z
" transform="scale(0.015625)"/>
       </defs>
       <use xlink:href="#DejaVuSans-31"/>
       <use xlink:href="#DejaVuSans-32" x="63.623047"/>
       <use xlink:href="#DejaVuSans-30" x="127.246094"/>
      </g>
     </g>
    </g>
    <g id="xtick_3">
     <g id="line2d_3">
      <g>
       <use xlink:href="#m088a69fe8e" x="539.34125" y="174.04" style="stroke: #000000; stroke-width: 0.8"/>
      </g>
     </g>
     <g id="text_3">
      <!-- 180 -->
      <g transform="translate(529.7975 188.638438)scale(0.1 -0.1)">
       <defs>
        <path id="DejaVuSans-38" d="M 2034 2216 
Q 1584 2216 1326 1975 
Q 1069 1734 1069 1313 
Q 1069 891 1326 650 
Q 1584 409 2034 409 
Q 2484 409 2743 651 
Q 3003 894 3003 1313 
Q 3003 1734 2745 1975 
Q 2488 2216 2034 2216 
z
M 1403 2484 
Q 997 2584 770 2862 
Q 544 3141 544 3541 
Q 544 4100 942 4425 
Q 1341 4750 2034 4750 
Q 2731 4750 3128 4425 
Q 3525 4100 3525 3541 
Q 3525 3141 3298 2862 
Q 3072 2584 2669 2484 
Q 3125 2378 3379 2068 
Q 3634 1759 3634 1313 
Q 3634 634 3220 271 
Q 2806 -91 2034 -91 
Q 1263 -91 848 271 
Q 434 634 434 1313 
Q 434 1759 690 2068 
Q 947 2378 1403 2484 
z
M 1172 3481 
Q 1172 3119 1398 2916 
Q 1625 2713 2034 2713 
Q 2441 2713 2670 2916 
Q 2900 3119 2900 3481 
Q 2900 3844 2670 4047 
Q 2441 4250 2034 4250 
Q 1625 4250 1398 4047 
Q 1172 3844 1172 3481 
z
" transform="scale(0.015625)"/>
       </defs>
       <use xlink:href="#DejaVuSans-31"/>
       <use xlink:href="#DejaVuSans-38" x="63.623047"/>
       <use xlink:href="#DejaVuSans-30" x="127.246094"/>
      </g>
     </g>
    </g>
    <g id="xtick_4">
     <g id="line2d_4">
      <g>
       <use xlink:href="#m088a69fe8e" x="699.615" y="174.04" style="stroke: #000000; stroke-width: 0.8"/>
      </g>
     </g>
     <g id="text_4">
      <!-- 240 -->
      <g transform="translate(690.07125 188.638438)scale(0.1 -0.1)">
       <defs>
        <path id="DejaVuSans-34" d="M 2419 4116 
L 825 1625 
L 2419 1625 
L 2419 4116 
z
M 2253 4666 
L 3047 4666 
L 3047 1625 
L 3713 1625 
L 3713 1100 
L 3047 1100 
L 3047 0 
L 2419 0 
L 2419 1100 
L 313 1100 
L 313 1709 
L 2253 4666 
z
" transform="scale(0.015625)"/>
       </defs>
       <use xlink:href="#DejaVuSans-32"/>
       <use xlink:href="#DejaVuSans-34" x="63.623047"/>
       <use xlink:href="#DejaVuSans-30" x="127.246094"/>
      </g>
     </g>
    </g>
    <g id="text_5">
     <!-- trial -->
     <g transform="translate(369.209687 202.316563)scale(0.1 -0.1)">
      <defs>
       <path id="DejaVuSans-74" d="M 1172 4494 
L 1172 3500 
L 2356 3500 
L 2356 3053 
L 1172 3053 
L 1172 1153 
Q 1172 725 1289 603 
Q 1406 481 1766 481 
L 2356 481 
L 2356 0 
L 1766 0 
Q 1100 0 847 248 
Q 594 497 594 1153 
L 594 3053 
L 172 3053 
L 172 3500 
L 594 3500 
L 594 4494 
L 1172 4494 
z
" transform="scale(0.015625)"/>
       <path id="DejaVuSans-72" d="M 2631 2963 
Q 2534 3019 2420 3045 
Q 2306 3072 2169 3072 
Q 1681 3072 1420 2755 
Q 1159 2438 1159 1844 
L 1159 0 
L 581 0 
L 581 3500 
L 1159 3500 
L 1159 2956 
Q 1341 3275 1631 3429 
Q 1922 3584 2338 3584 
Q 2397 3584 2469 3576 
Q 2541 3569 2628 3553 
L 2631 2963 
z
" transform="scale(0.015625)"/>
       <path id="DejaVuSans-69" d="M 603 3500 
L 1178 3500 
L 1178 0 
L 603 0 
L 603 3500 
z
M 603 4863 
L 1178 4863 
L 1178 4134 
L 603 4134 
L 603 4863 
z
" transform="scale(0.015625)"/>
       <path id="DejaVuSans-61" d="M 2194 1759 
Q 1497 1759 1228 1600 
Q 959 1441 959 1056 
Q 959 750 1161 570 
Q 1363 391 1709 391 
Q 2188 391 2477 730 
Q 2766 1069 2766 1631 
L 2766 1759 
L 2194 1759 
z
M 3341 1997 
L 3341 0 
L 2766 0 
L 2766 531 
Q 2569 213 2275 61 
Q 1981 -91 1556 -91 
Q 1019 -91 701 211 
Q 384 513 384 1019 
Q 384 1609 779 1909 
Q 1175 2209 1959 2209 
L 2766 2209 
L 2766 2266 
Q 2766 2663 2505 2880 
Q 2244 3097 1772 3097 
Q 1472 3097 1187 3025 
Q 903 2953 641 2809 
L 641 3341 
Q 956 3463 1253 3523 
Q 1550 3584 1831 3584 
Q 2591 3584 2966 3190 
Q 3341 2797 3341 1997 
z
" transform="scale(0.015625)"/>
       <path id="DejaVuSans-6c" d="M 603 4863 
L 1178 4863 
L 1178 0 
L 603 0 
L 603 4863 
z
" transform="scale(0.015625)"/>
      </defs>
      <use xlink:href="#DejaVuSans-74"/>
      <use xlink:href="#DejaVuSans-72" x="39.208984"/>
      <use xlink:href="#DejaVuSans-69" x="80.322266"/>
      <use xlink:href="#DejaVuSans-61" x="108.105469"/>
      <use xlink:href="#DejaVuSans-6c" x="169.384766"/>
     </g>
    </g>
   </g>
   <g id="matplotlib.axis_2">
    <g id="ytick_1">
     <g id="line2d_5">
      <defs>
       <path id="mfb520221b2" d="M 0 0 
L -3.5 0 
" style="stroke: #000000; stroke-width: 0.8"/>
      </defs>
      <g>
       <use xlink:href="#mfb520221b2" x="58.52" y="166.62" style="stroke: #000000; stroke-width: 0.8"/>
      </g>
     </g>
     <g id="text_6">
      <!-- small -->
      <g transform="translate(24.885625 170.419219)scale(0.1 -0.1)">
       <defs>
        <path id="DejaVuSans-73" d="M 2834 3397 
L 2834 2853 
Q 2591 2978 2328 3040 
Q 2066 3103 1784 3103 
Q 1356 3103 1142 2972 
Q 928 2841 928 2578 
Q 928 2378 1081 2264 
Q 1234 2150 1697 2047 
L 1894 2003 
Q 2506 1872 2764 1633 
Q 3022 1394 3022 966 
Q 3022 478 2636 193 
Q 2250 -91 1575 -91 
Q 1294 -91 989 -36 
Q 684 19 347 128 
L 347 722 
Q 666 556 975 473 
Q 1284 391 1588 391 
Q 1994 391 2212 530 
Q 2431 669 2431 922 
Q 2431 1156 2273 1281 
Q 2116 1406 1581 1522 
L 1381 1569 
Q 847 1681 609 1914 
Q 372 2147 372 2553 
Q 372 3047 722 3315 
Q 1072 3584 1716 3584 
Q 2034 3584 2315 3537 
Q 2597 3491 2834 3397 
z
" transform="scale(0.015625)"/>
        <path id="DejaVuSans-6d" d="M 3328 2828 
Q 3544 3216 3844 3400 
Q 4144 3584 4550 3584 
Q 5097 3584 5394 3201 
Q 5691 2819 5691 2113 
L 5691 0 
L 5113 0 
L 5113 2094 
Q 5113 2597 4934 2840 
Q 4756 3084 4391 3084 
Q 3944 3084 3684 2787 
Q 3425 2491 3425 1978 
L 3425 0 
L 2847 0 
L 2847 2094 
Q 2847 2600 2669 2842 
Q 2491 3084 2119 3084 
Q 1678 3084 1418 2786 
Q 1159 2488 1159 1978 
L 1159 0 
L 581 0 
L 581 3500 
L 1159 3500 
L 1159 2956 
Q 1356 3278 1631 3431 
Q 1906 3584 2284 3584 
Q 2666 3584 2933 3390 
Q 3200 3197 3328 2828 
z
" transform="scale(0.015625)"/>
       </defs>
       <use xlink:href="#DejaVuSans-73"/>
       <use xlink:href="#DejaVuSans-6d" x="52.099609"/>
       <use xlink:href="#DejaVuSans-61" x="149.511719"/>
       <use xlink:href="#DejaVuSans-6c" x="210.791016"/>
       <use xlink:href="#DejaVuSans-6c" x="238.574219"/>
      </g>
     </g>
    </g>
    <g id="ytick_2">
     <g id="line2d_6">
      <g>
       <use xlink:href="#mfb520221b2" x="58.52" y="18.22" style="stroke: #000000; stroke-width: 0.8"/>
      </g>
     </g>
     <g id="text_7">
      <!-- big -->
      <g transform="translate(36.045 22.019219)scale(0.1 -0.1)">
       <defs>
        <path id="DejaVuSans-62" d="M 3116 1747 
Q 3116 2381 2855 2742 
Q 2594 3103 2138 3103 
Q 1681 3103 1420 2742 
Q 1159 2381 1159 1747 
Q 1159 1113 1420 752 
Q 1681 391 2138 391 
Q 2594 391 2855 752 
Q 3116 1113 3116 1747 
z
M 1159 2969 
Q 1341 3281 1617 3432 
Q 1894 3584 2278 3584 
Q 2916 3584 3314 3078 
Q 3713 2572 3713 1747 
Q 3713 922 3314 415 
Q 2916 -91 2278 -91 
Q 1894 -91 1617 61 
Q 1341 213 1159 525 
L 1159 0 
L 581 0 
L 581 4863 
L 1159 4863 
L 1159 2969 
z
" transform="scale(0.015625)"/>
        <path id="DejaVuSans-67" d="M 2906 1791 
Q 2906 2416 2648 2759 
Q 2391 3103 1925 3103 
Q 1463 3103 1205 2759 
Q 947 2416 947 1791 
Q 947 1169 1205 825 
Q 1463 481 1925 481 
Q 2391 481 2648 825 
Q 2906 1169 2906 1791 
z
M 3481 434 
Q 3481 -459 3084 -895 
Q 2688 -1331 1869 -1331 
Q 1566 -1331 1297 -1286 
Q 1028 -1241 775 -1147 
L 775 -588 
Q 1028 -725 1275 -790 
Q 1522 -856 1778 -856 
Q 2344 -856 2625 -561 
Q 2906 -266 2906 331 
L 2906 616 
Q 2728 306 2450 153 
Q 2172 0 1784 0 
Q 1141 0 747 490 
Q 353 981 353 1791 
Q 353 2603 747 3093 
Q 1141 3584 1784 3584 
Q 2172 3584 2450 3431 
Q 2728 3278 2906 2969 
L 2906 3500 
L 3481 3500 
L 3481 434 
z
" transform="scale(0.015625)"/>
       </defs>
       <use xlink:href="#DejaVuSans-62"/>
       <use xlink:href="#DejaVuSans-69" x="63.476562"/>
       <use xlink:href="#DejaVuSans-67" x="91.259766"/>
      </g>
     </g>
    </g>
    <g id="text_8">
     <!-- choice -->
     <g transform="translate(18.805937 108.612188)rotate(-90)scale(0.1 -0.1)">
      <defs>
       <path id="DejaVuSans-63" d="M 3122 3366 
L 3122 2828 
Q 2878 2963 2633 3030 
Q 2388 3097 2138 3097 
Q 1578 3097 1268 2742 
Q 959 2388 959 1747 
Q 959 1106 1268 751 
Q 1578 397 2138 397 
Q 2388 397 2633 464 
Q 2878 531 3122 666 
L 3122 134 
Q 2881 22 2623 -34 
Q 2366 -91 2075 -91 
Q 1284 -91 818 406 
Q 353 903 353 1747 
Q 353 2603 823 3093 
Q 1294 3584 2113 3584 
Q 2378 3584 2631 3529 
Q 2884 3475 3122 3366 
z
" transform="scale(0.015625)"/>
       <path id="DejaVuSans-68" d="M 3513 2113 
L 3513 0 
L 2938 0 
L 2938 2094 
Q 2938 2591 2744 2837 
Q 2550 3084 2163 3084 
Q 1697 3084 1428 2787 
Q 1159 2491 1159 1978 
L 1159 0 
L 581 0 
L 581 4863 
L 1159 4863 
L 1159 2956 
Q 1366 3272 1645 3428 
Q 1925 3584 2291 3584 
Q 2894 3584 3203 3211 
Q 3513 2838 3513 2113 
z
" transform="scale(0.015625)"/>
       <path id="DejaVuSans-6f" d="M 1959 3097 
Q 1497 3097 1228 2736 
Q 959 2375 959 1747 
Q 959 1119 1226 758 
Q 1494 397 1959 397 
Q 2419 397 2687 759 
Q 2956 1122 2956 1747 
Q 2956 2369 2687 2733 
Q 2419 3097 1959 3097 
z
M 1959 3584 
Q 2709 3584 3137 3096 
Q 3566 2609 3566 1747 
Q 3566 888 3137 398 
Q 2709 -91 1959 -91 
Q 1206 -91 779 398 
Q 353 888 353 1747 
Q 353 2609 779 3096 
Q 1206 3584 1959 3584 
z
" transform="scale(0.015625)"/>
       <path id="DejaVuSans-65" d="M 3597 1894 
L 3597 1613 
L 953 1613 
Q 991 1019 1311 708 
Q 1631 397 2203 397 
Q 2534 397 2845 478 
Q 3156 559 3463 722 
L 3463 178 
Q 3153 47 2828 -22 
Q 2503 -91 2169 -91 
Q 1331 -91 842 396 
Q 353 884 353 1716 
Q 353 2575 817 3079 
Q 1281 3584 2069 3584 
Q 2775 3584 3186 3129 
Q 3597 2675 3597 1894 
z
M 3022 2063 
Q 3016 2534 2758 2815 
Q 2500 3097 2075 3097 
Q 1594 3097 1305 2825 
Q 1016 2553 972 2059 
L 3022 2063 
z
" transform="scale(0.015625)"/>
      </defs>
      <use xlink:href="#DejaVuSans-63"/>
      <use xlink:href="#DejaVuSans-68" x="54.980469"/>
      <use xlink:href="#DejaVuSans-6f" x="118.359375"/>
      <use xlink:href="#DejaVuSans-69" x="179.541016"/>
      <use xlink:href="#DejaVuSans-63" x="207.324219"/>
      <use xlink:href="#DejaVuSans-65" x="262.304688"/>
     </g>
    </g>
   </g>
   <g id="LineCollection_1">
    <path d="M 218.79375 166.62 
L 218.79375 18.22 
" clip-path="url(#p2a7ea81c1f)" style="fill: none; stroke-dasharray: 5.55,2.4; stroke-dashoffset: 0; stroke: #000000; stroke-width: 1.5"/>
    <path d="M 379.0675 166.62 
L 379.0675 18.22 
" clip-path="url(#p2a7ea81c1f)" style="fill: none; stroke-dasharray: 5.55,2.4; stroke-dashoffset: 0; stroke: #000000; stroke-width: 1.5"/>
    <path d="M 539.34125 166.62 
L 539.34125 18.22 
" clip-path="url(#p2a7ea81c1f)" style="fill: none; stroke-dasharray: 5.55,2.4; stroke-dashoffset: 0; stroke: #000000; stroke-width: 1.5"/>
   </g>
   <g id="patch_3">
    <path d="M 58.52 174.04 
L 58.52 10.8 
" style="fill: none; stroke: #000000; stroke-width: 0.8; stroke-linejoin: miter; stroke-linecap: square"/>
   </g>
   <g id="patch_4">
    <path d="M 58.52 174.04 
L 699.615 174.04 
" style="fill: none; stroke: #000000; stroke-width: 0.8; stroke-linejoin: miter; stroke-linecap: square"/>
   </g>
   <g id="text_9">
    <!-- g = 0.0 -->
    <g transform="translate(120.163125 92.42)scale(0.1 -0.1)">
     <defs>
      <path id="DejaVuSans-20" transform="scale(0.015625)"/>
      <path id="DejaVuSans-3d" d="M 678 2906 
L 4684 2906 
L 4684 2381 
L 678 2381 
L 678 2906 
z
M 678 1631 
L 4684 1631 
L 4684 1100 
L 678 1100 
L 678 1631 
z
" transform="scale(0.015625)"/>
      <path id="DejaVuSans-2e" d="M 684 794 
L 1344 794 
L 1344 0 
L 684 0 
L 684 794 
z
" transform="scale(0.015625)"/>
     </defs>
     <use xlink:href="#DejaVuSans-67"/>
     <use xlink:href="#DejaVuSans-20" x="63.476562"/>
     <use xlink:href="#DejaVuSans-3d" x="95.263672"/>
     <use xlink:href="#DejaVuSans-20" x="179.052734"/>
     <use xlink:href="#DejaVuSans-30" x="210.839844"/>
     <use xlink:href="#DejaVuSans-2e" x="274.462891"/>
     <use xlink:href="#DejaVuSans-30" x="306.25"/>
    </g>
   </g>
   <g id="text_10">
    <!-- g = -0.3 -->
    <g transform="translate(278.632969 92.42)scale(0.1 -0.1)">
     <defs>
      <path id="DejaVuSans-2d" d="M 313 2009 
L 1997 2009 
L 1997 1497 
L 313 1497 
L 313 2009 
z
" transform="scale(0.015625)"/>
      <path id="DejaVuSans-33" d="M 2597 2516 
Q 3050 2419 3304 2112 
Q 3559 1806 3559 1356 
Q 3559 666 3084 287 
Q 2609 -91 1734 -91 
Q 1441 -91 1130 -33 
Q 819 25 488 141 
L 488 750 
Q 750 597 1062 519 
Q 1375 441 1716 441 
Q 2309 441 2620 675 
Q 2931 909 2931 1356 
Q 2931 1769 2642 2001 
Q 2353 2234 1838 2234 
L 1294 2234 
L 1294 2753 
L 1863 2753 
Q 2328 2753 2575 2939 
Q 2822 3125 2822 3475 
Q 2822 3834 2567 4026 
Q 2313 4219 1838 4219 
Q 1578 4219 1281 4162 
Q 984 4106 628 3988 
L 628 4550 
Q 988 4650 1302 4700 
Q 1616 4750 1894 4750 
Q 2613 4750 3031 4423 
Q 3450 4097 3450 3541 
Q 3450 3153 3228 2886 
Q 3006 2619 2597 2516 
z
" transform="scale(0.015625)"/>
     </defs>
     <use xlink:href="#DejaVuSans-67"/>
     <use xlink:href="#DejaVuSans-20" x="63.476562"/>
     <use xlink:href="#DejaVuSans-3d" x="95.263672"/>
     <use xlink:href="#DejaVuSans-20" x="179.052734"/>
     <use xlink:href="#DejaVuSans-2d" x="210.839844"/>
     <use xlink:href="#DejaVuSans-30" x="246.923828"/>
     <use xlink:href="#DejaVuSans-2e" x="310.546875"/>
     <use xlink:href="#DejaVuSans-33" x="342.333984"/>
    </g>
   </g>
   <g id="text_11">
    <!-- g = 0.1 -->
    <g transform="translate(440.710625 92.42)scale(0.1 -0.1)">
     <use xlink:href="#DejaVuSans-67"/>
     <use xlink:href="#DejaVuSans-20" x="63.476562"/>
     <use xlink:href="#DejaVuSans-3d" x="95.263672"/>
     <use xlink:href="#DejaVuSans-20" x="179.052734"/>
     <use xlink:href="#DejaVuSans-30" x="210.839844"/>
     <use xlink:href="#DejaVuSans-2e" x="274.462891"/>
     <use xlink:href="#DejaVuSans-31" x="306.25"/>
    </g>
   </g>
   <g id="text_12">
    <!-- g = 0.3 -->
    <g transform="translate(600.984375 92.42)scale(0.1 -0.1)">
     <use xlink:href="#DejaVuSans-67"/>
     <use xlink:href="#DejaVuSans-20" x="63.476562"/>
     <use xlink:href="#DejaVuSans-3d" x="95.263672"/>
     <use xlink:href="#DejaVuSans-20" x="179.052734"/>
     <use xlink:href="#DejaVuSans-30" x="210.839844"/>
     <use xlink:href="#DejaVuSans-2e" x="274.462891"/>
     <use xlink:href="#DejaVuSans-33" x="306.25"/>
    </g>
   </g>
  </g>
 </g>
 <defs>
  <clipPath id="p2a7ea81c1f">
   <rect x="58.52" y="10.8" width="641.095" height="163.24"/>
  </clipPath>
 </defs>
</svg>
